# xmcd CD database file
#
# Track frame offsets:
#	150
#	22035
#	39568
#	47440
#	76405
#	98633
#	116998
#	139420
#	157027
#	175903
#	201615
#	218496
#
# Disc length: 3225 seconds
#
# Revision: 10
# Processed by: cddbd v1.5PL3 Copyright (c) Steve Scherf et al.
# Submitted via: CDex 1.50
#
DISCID=aa0c970c
DTITLE=Ben Harper - The will to live
DYEAR=1997
DGENRE=Blues
TTITLE0=Faded
TTITLE1=Homeless Child
TTITLE2=Number Three
TTITLE3=Roses From My Friends
TTITLE4=Jah Work
TTITLE5=I Want To Be Ready
TTITLE6=The Will To Live
TTITLE7=Ashes
TTITLE8=Widow Of A Living Man
TTITLE9=Glory and Consequence
TTITLE10=Mama's Trippin'
TTITLE11=I Shall Not Walk Alone
EXTD=YEAR: 1997
EXTT0=
EXTT1=
EXTT2=
EXTT3=
EXTT4=
EXTT5=
EXTT6=
EXTT7=
EXTT8=
EXTT9=
EXTT10=
EXTT11=
PLAYORDER=
